<mxfile host="app.diagrams.net" modified="2020-05-13T20:59:28.508Z" agent="5.0 (Windows NT 10.0; Win64; x64) AppleWebKit/537.36 (KHTML, like Gecko) Chrome/81.0.4044.138 Safari/537.36" etag="1VEEoZU-ddEzPyyQ4vWR" version="13.1.1" type="github">
  <diagram id="xCL_L9cShdf_ExTRjXdr" name="Page-1">
    <mxGraphModel dx="982" dy="511" grid="1" gridSize="10" guides="1" tooltips="1" connect="1" arrows="1" fold="1" page="1" pageScale="1" pageWidth="827" pageHeight="1169" math="0" shadow="0">
      <root>
        <mxCell id="0" />
        <mxCell id="1" parent="0" />
        <mxCell id="0jNofoDTvWUWEe__ryTF-9" style="edgeStyle=orthogonalEdgeStyle;rounded=0;orthogonalLoop=1;jettySize=auto;html=1;entryX=0.416;entryY=-0.007;entryDx=0;entryDy=0;entryPerimeter=0;" edge="1" parent="1" source="0jNofoDTvWUWEe__ryTF-1" target="0jNofoDTvWUWEe__ryTF-5">
          <mxGeometry relative="1" as="geometry" />
        </mxCell>
        <mxCell id="0jNofoDTvWUWEe__ryTF-1" value="Inicio" style="ellipse;whiteSpace=wrap;html=1;" vertex="1" parent="1">
          <mxGeometry x="150" y="80" width="120" height="80" as="geometry" />
        </mxCell>
        <mxCell id="0jNofoDTvWUWEe__ryTF-10" style="edgeStyle=orthogonalEdgeStyle;rounded=0;orthogonalLoop=1;jettySize=auto;html=1;entryX=0.5;entryY=0;entryDx=0;entryDy=0;exitX=0.499;exitY=0.839;exitDx=0;exitDy=0;exitPerimeter=0;" edge="1" parent="1" source="0jNofoDTvWUWEe__ryTF-5" target="0jNofoDTvWUWEe__ryTF-6">
          <mxGeometry relative="1" as="geometry" />
        </mxCell>
        <mxCell id="0jNofoDTvWUWEe__ryTF-5" value="Hola mundo" style="shape=document;whiteSpace=wrap;html=1;boundedLbl=1;" vertex="1" parent="1">
          <mxGeometry x="160" y="200" width="120" height="80" as="geometry" />
        </mxCell>
        <mxCell id="0jNofoDTvWUWEe__ryTF-6" value="Fin" style="ellipse;whiteSpace=wrap;html=1;" vertex="1" parent="1">
          <mxGeometry x="160" y="320" width="120" height="80" as="geometry" />
        </mxCell>
      </root>
    </mxGraphModel>
  </diagram>
</mxfile>
